<?xml version="1.0" standalone="no"?>
<!DOCTYPE svg PUBLIC "-//W3C//DTD SVG 20010904//EN"
 "http://www.w3.org/TR/2001/REC-SVG-20010904/DTD/svg10.dtd">
<svg version="1.0" xmlns="http://www.w3.org/2000/svg"
 width="512.000000pt" height="512.000000pt" viewBox="0 0 512.000000 512.000000"
 preserveAspectRatio="xMidYMid meet">
<metadata>
Created by potrace 1.11, written by Peter Selinger 2001-2013
</metadata>
<g transform="translate(0.000000,512.000000) scale(0.100000,-0.100000)"
fill="#000000" stroke="none">
<path d="M2390 4760 c-692 -60 -1295 -415 -1675 -985 -191 -287 -304 -590
-356 -955 -20 -142 -15 -443 10 -600 97 -604 416 -1124 904 -1473 695 -498
1616 -551 2363 -136 529 295 923 802 1073 1381 56 214 66 302 66 558 0 250
-10 336 -61 543 -198 795 -846 1429 -1654 1616 -200 47 -478 68 -670 51z m402
-135 c484 -56 904 -259 1243 -600 322 -322 524 -723 592 -1173 20 -136 23
-443 4 -567 -70 -472 -252 -849 -570 -1179 -165 -171 -331 -295 -542 -405
-101 -52 -153 -75 -289 -126 -60 -22 -220 -62 -325 -82 -143 -26 -546 -26
-690 0 -437 80 -793 261 -1101 560 -403 390 -618 871 -641 1432 -18 470 128
931 421 1325 91 122 284 315 406 406 440 327 965 471 1492 409z"/>
<path d="M2385 4564 c-382 -42 -716 -169 -1024 -391 -122 -87 -337 -302 -424
-424 -192 -266 -312 -548 -368 -864 -30 -169 -33 -484 -6 -640 53 -305 160
-577 324 -822 64 -96 173 -231 231 -286 l30 -29 18 49 c13 33 42 72 94 124 63
64 92 84 185 130 61 30 124 59 141 65 27 10 32 18 42 65 6 30 23 104 37 164
66 287 129 633 165 905 27 205 52 552 40 564 -32 32 -159 -194 -230 -409 -19
-55 -37 -104 -42 -109 -4 -6 -24 8 -47 31 -89 94 -81 297 18 492 l22 42 -23
-12 c-142 -75 -327 -250 -451 -427 l-52 -73 -17 21 c-34 41 -17 145 38 244 36
64 126 168 201 233 79 67 159 120 292 191 106 56 107 51 -17 96 -144 51 -334
97 -542 131 -142 23 -144 23 -130 40 7 8 37 24 68 36 158 60 471 18 721 -97
70 -32 101 -41 101 -28 0 9 -52 95 -99 164 -49 72 -162 209 -210 254 -29 28
-30 30 -12 42 79 56 245 -2 375 -131 52 -52 123 -155 151 -220 9 -22 19 -35
22 -28 9 24 143 125 215 162 134 69 281 76 337 17 l22 -23 -66 -41 c-81 -51
-218 -152 -213 -157 2 -2 40 6 83 17 114 31 293 32 349 2 l39 -21 -74 -22
c-117 -35 -322 -102 -343 -113 -15 -8 -8 -14 45 -32 102 -36 163 -71 230 -133
71 -66 109 -136 109 -200 0 -24 -2 -43 -4 -43 -2 0 -50 22 -107 49 -148 70
-165 72 -87 12 37 -28 86 -75 108 -105 39 -52 67 -112 57 -122 -3 -3 -52 21
-109 54 -122 71 -263 142 -372 188 -64 28 -77 31 -70 17 28 -64 66 -193 80
-273 19 -113 13 -212 -18 -279 l-21 -46 -14 50 c-76 266 -168 533 -179 522 -2
-2 -15 -123 -29 -269 -40 -439 -53 -979 -29 -1254 l5 -61 177 -6 c167 -6 245
-17 440 -64 l22 -5 0 380 0 381 -42 12 c-37 10 -53 8 -115 -10 -91 -26 -116
-26 -206 0 l-73 22 -84 -25 -85 -25 -3 23 c-8 60 98 189 198 238 272 135 680
127 918 -18 99 -60 172 -152 172 -216 0 -24 -4 -24 -64 -4 -49 17 -81 16 -158
-6 -41 -12 -54 -12 -101 3 -66 21 -123 22 -170 2 -20 -8 -52 -15 -72 -15 l-35
0 -2 -382 -3 -383 80 -43 c44 -24 96 -56 116 -72 53 -42 156 -96 219 -114 30
-9 237 -44 459 -77 l405 -60 64 63 c255 251 458 632 531 997 72 355 45 737
-74 1071 -217 609 -708 1077 -1329 1265 -175 53 -330 76 -536 80 -96 2 -193 1
-215 -1z"/>
<path d="M1240 1024 c21 -24 187 -145 272 -198 344 -211 786 -317 1191 -286
402 31 751 161 1073 401 50 37 96 75 104 83 11 15 -115 16 -1320 16 -1205 0
-1331 -1 -1320 -16z"/>
</g>
</svg>
